<svg width="280" height="252" viewBox="0 0 280 252" fill="none" xmlns="http://www.w3.org/2000/svg">
<path d="M40.8695 73.936C38.3948 73.936 36.5175 73.104 35.2375 71.44C33.9575 69.7333 33.1042 67.2373 32.6775 63.952C32.2508 60.6667 32.0375 56.592 32.0375 51.728C32.0375 46.864 32.2508 42.768 32.6775 39.44C33.1042 36.112 33.9575 33.616 35.2375 31.952C36.5175 30.2453 38.3948 29.392 40.8695 29.392C43.0455 29.392 44.7095 30.0747 45.8615 31.44C47.0562 32.7627 47.8882 34.704 48.3575 37.264C48.8695 39.824 49.1682 42.896 49.2535 46.48C49.9788 46.48 50.7255 46.48 51.4935 46.48C52.2615 46.48 53.0295 46.48 53.7975 46.48C54.6935 46.48 55.5682 46.48 56.4215 46.48C57.3175 46.48 58.1708 46.5013 58.9815 46.544C59.0668 42.9173 59.3442 39.824 59.8135 37.264C60.2828 34.704 61.0935 32.7413 62.2455 31.376C63.4402 30.0107 65.1255 29.328 67.3015 29.328C69.7762 29.328 71.6535 30.1813 72.9335 31.888C74.2135 33.5947 75.0668 36.112 75.4935 39.44C75.9628 42.768 76.1975 46.864 76.1975 51.728C76.1975 56.592 75.9628 60.6667 75.4935 63.952C75.0668 67.2373 74.2135 69.712 72.9335 71.376C71.6535 73.04 69.7762 73.872 67.3015 73.872C64.2295 73.872 62.1388 72.5493 61.0295 69.904C59.9202 67.2587 59.2588 63.504 59.0455 58.64C58.0642 58.6827 57.0188 58.704 55.9095 58.704C54.8002 58.704 53.6695 58.704 52.5175 58.704C51.9628 58.704 51.4082 58.704 50.8535 58.704C50.2988 58.704 49.7442 58.704 49.1895 58.704C48.9762 63.5253 48.2935 67.28 47.1415 69.968C46.0322 72.6133 43.9415 73.936 40.8695 73.936ZM89.3965 74.128C86.4525 74.128 84.1272 72.6987 82.4205 69.84C80.7565 66.9813 79.7752 63.2267 79.4765 58.576C79.1352 52.816 79.7538 47.7387 81.3325 43.344C82.9538 38.9067 85.3858 35.4507 88.6285 32.976C91.8712 30.5013 95.7325 29.264 100.213 29.264C104.735 29.264 108.597 30.5013 111.797 32.976C115.039 35.4507 117.45 38.8853 119.029 43.28C120.65 47.6747 121.269 52.7733 120.885 58.576C120.586 63.3547 119.583 67.1307 117.877 69.904C116.213 72.6773 113.909 74.064 110.965 74.064C109.301 74.064 108.021 73.7653 107.125 73.168C106.229 72.528 105.589 71.7387 105.205 70.8C104.863 69.8187 104.693 68.8373 104.693 67.856C104.693 66.832 104.757 65.9573 104.885 65.232C103.519 65.2747 101.919 65.3173 100.085 65.36C98.2498 65.36 96.7138 65.3173 95.4765 65.232C95.6045 65.9573 95.6685 66.832 95.6685 67.856C95.6685 68.8373 95.4765 69.8187 95.0925 70.8C94.7512 71.7387 94.1325 72.528 93.2365 73.168C92.3405 73.808 91.0605 74.128 89.3965 74.128ZM95.0285 53.84C98.3992 53.712 101.77 53.712 105.141 53.84C105.354 52.3467 105.333 50.9173 105.077 49.552C104.821 48.1867 104.287 47.0773 103.477 46.224C102.666 45.3707 101.514 44.944 100.021 44.944C98.5272 44.944 97.3752 45.3707 96.5645 46.224C95.7965 47.0773 95.2845 48.1867 95.0285 49.552C94.8152 50.8747 94.8152 52.304 95.0285 53.84ZM132.562 74.064C130.642 74.064 129.084 73.4453 127.89 72.208C126.695 70.928 125.778 69.2427 125.138 67.152C124.498 65.0187 124.071 62.6933 123.858 60.176C123.644 57.6587 123.538 55.1627 123.538 52.688C123.538 49.7867 123.922 46.9493 124.69 44.176C125.5 41.4027 126.716 38.9067 128.338 36.688C130.002 34.4267 132.092 32.6347 134.61 31.312C137.127 29.9893 140.114 29.328 143.57 29.328C147.068 29.328 150.226 30.0533 153.042 31.504C155.9 32.9547 158.183 35.024 159.89 37.712C161.596 40.4 162.45 43.6 162.45 47.312C162.45 50.64 161.938 53.4987 160.914 55.888C159.89 58.2773 158.503 60.24 156.754 61.776C155.047 63.2693 153.127 64.3787 150.994 65.104C148.903 65.8293 146.77 66.1707 144.594 66.128C142.418 66.0427 140.391 65.616 138.514 64.848C138.727 65.872 138.833 66.9173 138.833 67.984C138.876 69.0507 138.706 70.0533 138.322 70.992C137.98 71.888 137.34 72.6347 136.402 73.232C135.506 73.7867 134.226 74.064 132.562 74.064ZM144.21 56.144C145.746 56.144 147.068 55.5893 148.178 54.48C149.33 53.328 149.906 52.0053 149.906 50.512C149.906 48.976 149.33 47.6533 148.178 46.544C147.068 45.392 145.746 44.816 144.21 44.816C142.674 44.816 141.33 45.392 140.178 46.544C139.068 47.6533 138.514 48.976 138.514 50.512C138.514 52.0053 139.068 53.328 140.178 54.48C141.33 55.5893 142.674 56.144 144.21 56.144ZM173.437 74.064C171.517 74.064 169.959 73.4453 168.765 72.208C167.57 70.928 166.653 69.2427 166.013 67.152C165.373 65.0187 164.946 62.6933 164.733 60.176C164.519 57.6587 164.413 55.1627 164.413 52.688C164.413 49.7867 164.797 46.9493 165.565 44.176C166.375 41.4027 167.591 38.9067 169.213 36.688C170.877 34.4267 172.967 32.6347 175.485 31.312C178.002 29.9893 180.989 29.328 184.445 29.328C187.943 29.328 191.101 30.0533 193.917 31.504C196.775 32.9547 199.058 35.024 200.765 37.712C202.471 40.4 203.325 43.6 203.325 47.312C203.325 50.64 202.813 53.4987 201.789 55.888C200.765 58.2773 199.378 60.24 197.629 61.776C195.922 63.2693 194.002 64.3787 191.869 65.104C189.778 65.8293 187.645 66.1707 185.469 66.128C183.293 66.0427 181.266 65.616 179.389 64.848C179.602 65.872 179.708 66.9173 179.708 67.984C179.751 69.0507 179.581 70.0533 179.197 70.992C178.855 71.888 178.215 72.6347 177.277 73.232C176.381 73.7867 175.101 74.064 173.437 74.064ZM185.085 56.144C186.621 56.144 187.943 55.5893 189.053 54.48C190.205 53.328 190.781 52.0053 190.781 50.512C190.781 48.976 190.205 47.6533 189.053 46.544C187.943 45.392 186.621 44.816 185.085 44.816C183.549 44.816 182.205 45.392 181.053 46.544C179.943 47.6533 179.389 48.976 179.389 50.512C179.389 52.0053 179.943 53.328 181.053 54.48C182.205 55.5893 183.549 56.144 185.085 56.144ZM226.6 74C225.32 74 224.082 73.7227 222.888 73.168C221.736 72.5707 220.776 71.7173 220.008 70.608C219.282 69.4987 218.92 68.1333 218.92 66.512C218.92 65.4453 218.941 64.4853 218.984 63.632C214.93 62.5653 211.624 60.56 209.064 57.616C206.546 54.6293 205.288 50.64 205.288 45.648C205.288 40.6987 206.12 36.752 207.784 33.808C209.448 30.8213 211.986 29.328 215.4 29.328C217.746 29.328 219.624 30.032 221.032 31.44C222.482 32.848 223.208 34.832 223.208 37.392C223.208 38.8 223.101 40.208 222.888 41.616C222.717 43.024 222.632 44.1547 222.632 45.008C222.632 46.7147 222.93 48.0587 223.528 49.04C224.125 50.0213 225.149 50.512 226.6 50.512C228.093 50.512 229.117 50.0213 229.672 49.04C230.269 48.0587 230.568 46.7147 230.568 45.008C230.568 44.1547 230.461 43.0027 230.248 41.552C230.077 40.0587 229.992 38.6507 229.992 37.328C229.992 34.8107 230.717 32.848 232.168 31.44C233.618 30.032 235.517 29.328 237.864 29.328C240.168 29.328 242.066 29.9893 243.56 31.312C245.053 32.6347 246.162 34.4693 246.888 36.816C247.613 39.1627 247.976 41.8507 247.976 44.88C247.976 50.384 246.632 54.672 243.944 57.744C241.298 60.7733 237.842 62.7787 233.576 63.76C233.618 64.5707 233.64 65.488 233.64 66.512C233.64 68.176 233.298 69.5627 232.616 70.672C231.933 71.7813 231.058 72.6133 229.992 73.168C228.925 73.7227 227.794 74 226.6 74ZM24.5171 237C23.5251 237 22.6451 236.6 21.8771 235.8C21.1411 235 20.5171 233.944 20.0051 232.632C19.5251 231.32 19.1251 229.88 18.8051 228.312C18.5171 226.744 18.3091 225.176 18.1811 223.608C18.0531 222.008 17.9891 220.568 17.9891 219.288C17.9891 217.656 18.1171 215.928 18.3731 214.104C18.6291 212.28 19.0771 210.568 19.7171 208.968C20.3571 207.336 21.2371 206.008 22.3571 204.984C23.4771 203.96 24.9171 203.448 26.6771 203.448C27.8931 203.448 28.9491 203.848 29.8451 204.648C30.7731 205.416 31.6051 206.504 32.3411 207.912C33.0771 209.288 33.7811 210.872 34.4531 212.664C35.1251 214.456 35.8451 216.36 36.6131 218.376C36.4851 215.624 36.5651 213.128 36.8531 210.888C37.1731 208.616 37.8131 206.808 38.7731 205.464C39.7331 204.12 41.0931 203.448 42.8531 203.448C44.3571 203.448 45.5571 203.96 46.4531 204.984C47.3811 206.008 48.0851 207.336 48.5651 208.968C49.0451 210.568 49.3651 212.28 49.5251 214.104C49.7171 215.928 49.8131 217.656 49.8131 219.288C49.8131 220.6 49.7171 222.04 49.5251 223.608C49.3331 225.176 49.0131 226.744 48.5651 228.312C48.1171 229.88 47.5091 231.32 46.7411 232.632C45.9731 233.944 45.0291 235 43.9091 235.8C42.8211 236.6 41.5091 237 39.9731 237C38.5971 237 37.4131 236.568 36.4211 235.704C35.4611 234.808 34.5971 233.64 33.8291 232.2C33.0931 230.728 32.4051 229.112 31.7651 227.352C31.1251 225.592 30.4531 223.832 29.7491 222.072C29.7811 224.28 29.7811 226.312 29.7491 228.168C29.7171 229.992 29.5411 231.56 29.2211 232.872C28.9331 234.184 28.4211 235.208 27.6851 235.944C26.9491 236.648 25.8931 237 24.5171 237ZM68.1551 237C66.8431 237 65.4351 236.904 63.9311 236.712C62.4591 236.52 61.0031 236.12 59.5631 235.512C58.1231 234.904 56.8111 234.008 55.6271 232.824C54.4431 231.64 53.4991 230.072 52.7951 228.12C52.0911 226.136 51.7391 223.688 51.7391 220.776C51.7391 217.576 52.2831 214.664 53.3711 212.04C54.4591 209.416 56.1071 207.32 58.3151 205.752C60.5231 204.184 63.2911 203.4 66.6191 203.4C69.0191 203.4 70.9711 203.608 72.4751 204.024C74.0111 204.44 75.2111 204.984 76.0751 205.656C76.9391 206.328 77.5311 207.064 77.8511 207.864C78.2031 208.664 78.3791 209.464 78.3791 210.264C78.3791 211.096 78.1551 211.896 77.7071 212.664C77.2911 213.432 76.6191 214.04 75.6911 214.488C74.7951 214.904 73.8671 215.096 72.9071 215.064C71.9471 215 71.0831 214.968 70.3151 214.968C68.6511 214.968 67.3391 215.272 66.3791 215.88C65.4511 216.456 64.7951 217.352 64.4111 218.568C64.9231 218.536 65.4831 218.52 66.0911 218.52C66.7311 218.488 67.3871 218.472 68.0591 218.472C69.3711 218.472 70.6191 218.504 71.8031 218.568C73.0191 218.6 73.8671 218.664 74.3471 218.76C75.4671 218.984 76.3151 219.432 76.8911 220.104C77.4671 220.744 77.7551 221.48 77.7551 222.312C77.7551 223.112 77.4831 223.832 76.9391 224.472C76.3951 225.112 75.5151 225.56 74.2991 225.816C73.8511 225.912 72.9871 225.992 71.7071 226.056C70.4591 226.088 69.1471 226.104 67.7711 226.104C67.2271 226.104 66.6991 226.104 66.1871 226.104C65.6751 226.072 65.2111 226.056 64.7951 226.056C65.2431 227.048 65.9151 227.832 66.8111 228.408C67.7391 228.952 68.9231 229.224 70.3631 229.224C70.9071 229.224 71.6911 229.176 72.7151 229.08C73.7391 228.952 74.7311 229.032 75.6911 229.32C77.2271 229.8 77.9951 230.808 77.9951 232.344C77.9951 233.176 77.7071 233.96 77.1311 234.696C76.5871 235.4 75.5951 235.96 74.1551 236.376C72.7471 236.792 70.7471 237 68.1551 237ZM92.4881 237C89.9281 237 87.6881 236.296 85.7681 234.888C83.8801 233.48 82.4241 231.496 81.4001 228.936C80.3761 226.344 79.8641 223.272 79.8641 219.72C79.8641 218.28 80.0401 216.712 80.3921 215.016C80.7761 213.288 81.3361 211.656 82.0721 210.12C82.8081 208.552 83.7041 207.272 84.7601 206.28C85.8161 205.288 87.0321 204.792 88.4081 204.792C89.8481 204.792 91.0161 205.304 91.9121 206.328C92.8401 207.352 93.3041 208.616 93.3041 210.12C93.3041 210.888 93.0961 211.88 92.6801 213.096C92.2641 214.28 91.8481 215.56 91.4321 216.936C91.0161 218.28 90.8081 219.592 90.8081 220.872C90.8081 222.376 91.0321 223.432 91.4801 224.04C91.9281 224.616 92.4241 224.904 92.9681 224.904C93.7681 224.904 94.3281 224.504 94.6481 223.704C95.0001 222.904 95.1761 221.384 95.1761 219.144C95.1761 217.96 95.1601 216.696 95.1281 215.352C95.1281 214.008 95.2401 212.744 95.4641 211.56C95.7201 210.344 96.2001 209.352 96.9041 208.584C97.6401 207.816 98.7281 207.432 100.168 207.432C101.608 207.432 102.696 207.8 103.432 208.536C104.2 209.272 104.712 210.232 104.968 211.416C105.224 212.568 105.352 213.8 105.352 215.112C105.384 216.424 105.4 217.672 105.4 218.856C105.4 221.256 105.608 222.936 106.024 223.896C106.44 224.824 107.08 225.288 107.944 225.288C108.584 225.288 109.08 224.936 109.432 224.232C109.784 223.496 109.928 222.376 109.864 220.872C109.8 219.592 109.56 218.328 109.144 217.08C108.728 215.8 108.312 214.568 107.896 213.384C107.512 212.2 107.32 211.112 107.32 210.12C107.32 208.552 107.816 207.288 108.808 206.328C109.8 205.368 110.936 204.888 112.216 204.888C113.72 204.888 115.016 205.384 116.104 206.376C117.192 207.368 118.088 208.632 118.792 210.168C119.496 211.704 120.008 213.32 120.328 215.016C120.68 216.712 120.856 218.28 120.856 219.72C120.856 223.272 120.344 226.344 119.32 228.936C118.296 231.496 116.84 233.48 114.952 234.888C113.064 236.264 110.824 236.952 108.232 236.952C106.856 236.952 105.496 236.648 104.152 236.04C102.808 235.4 101.544 234.424 100.36 233.112C99.1761 234.424 97.8961 235.4 96.5201 236.04C95.1761 236.68 93.8321 237 92.4881 237ZM153.645 237C152.685 237 151.757 236.792 150.861 236.376C149.997 235.928 149.277 235.288 148.701 234.456C148.157 233.624 147.885 232.6 147.885 231.384C147.885 230.584 147.901 229.864 147.933 229.224C144.893 228.424 142.413 226.92 140.493 224.712C138.605 222.472 137.661 219.48 137.661 215.736C137.661 212.024 138.285 209.064 139.533 206.856C140.781 204.616 142.685 203.496 145.245 203.496C147.005 203.496 148.413 204.024 149.469 205.08C150.557 206.136 151.101 207.624 151.101 209.544C151.101 210.6 151.021 211.656 150.861 212.712C150.733 213.768 150.669 214.616 150.669 215.256C150.669 216.536 150.893 217.544 151.341 218.28C151.789 219.016 152.557 219.384 153.645 219.384C154.765 219.384 155.533 219.016 155.949 218.28C156.397 217.544 156.621 216.536 156.621 215.256C156.621 214.616 156.541 213.752 156.381 212.664C156.253 211.544 156.189 210.488 156.189 209.496C156.189 207.608 156.733 206.136 157.821 205.08C158.909 204.024 160.333 203.496 162.093 203.496C163.821 203.496 165.245 203.992 166.365 204.984C167.485 205.976 168.317 207.352 168.861 209.112C169.405 210.872 169.677 212.888 169.677 215.16C169.677 219.288 168.669 222.504 166.653 224.808C164.669 227.08 162.077 228.584 158.877 229.32C158.909 229.928 158.925 230.616 158.925 231.384C158.925 232.632 158.669 233.672 158.157 234.504C157.645 235.336 156.989 235.96 156.189 236.376C155.389 236.792 154.541 237 153.645 237ZM187.546 237C186.234 237 184.826 236.904 183.322 236.712C181.85 236.52 180.394 236.12 178.954 235.512C177.514 234.904 176.202 234.008 175.018 232.824C173.834 231.64 172.89 230.072 172.186 228.12C171.482 226.136 171.13 223.688 171.13 220.776C171.13 217.576 171.674 214.664 172.762 212.04C173.85 209.416 175.498 207.32 177.706 205.752C179.914 204.184 182.682 203.4 186.01 203.4C188.41 203.4 190.362 203.608 191.866 204.024C193.402 204.44 194.602 204.984 195.466 205.656C196.33 206.328 196.922 207.064 197.242 207.864C197.594 208.664 197.77 209.464 197.77 210.264C197.77 211.096 197.546 211.896 197.098 212.664C196.682 213.432 196.01 214.04 195.082 214.488C194.186 214.904 193.258 215.096 192.298 215.064C191.338 215 190.474 214.968 189.706 214.968C188.042 214.968 186.73 215.272 185.77 215.88C184.842 216.456 184.186 217.352 183.802 218.568C184.314 218.536 184.874 218.52 185.482 218.52C186.122 218.488 186.778 218.472 187.45 218.472C188.762 218.472 190.01 218.504 191.194 218.568C192.41 218.6 193.258 218.664 193.738 218.76C194.858 218.984 195.706 219.432 196.282 220.104C196.858 220.744 197.146 221.48 197.146 222.312C197.146 223.112 196.874 223.832 196.33 224.472C195.786 225.112 194.906 225.56 193.69 225.816C193.242 225.912 192.378 225.992 191.098 226.056C189.85 226.088 188.538 226.104 187.162 226.104C186.618 226.104 186.09 226.104 185.578 226.104C185.066 226.072 184.602 226.056 184.186 226.056C184.634 227.048 185.306 227.832 186.202 228.408C187.13 228.952 188.314 229.224 189.754 229.224C190.298 229.224 191.082 229.176 192.106 229.08C193.13 228.952 194.122 229.032 195.082 229.32C196.618 229.8 197.386 230.808 197.386 232.344C197.386 233.176 197.098 233.96 196.522 234.696C195.978 235.4 194.986 235.96 193.546 236.376C192.138 236.792 190.138 237 187.546 237ZM207.211 237.096C205.003 237.096 203.259 236.024 201.979 233.88C200.731 231.736 199.995 228.92 199.771 225.432C199.515 221.112 199.979 217.304 201.163 214.008C202.379 210.68 204.203 208.088 206.635 206.232C209.067 204.376 211.963 203.448 215.323 203.448C218.715 203.448 221.611 204.376 224.011 206.232C226.443 208.088 228.251 210.664 229.435 213.96C230.651 217.256 231.115 221.08 230.827 225.432C230.603 229.016 229.851 231.848 228.571 233.928C227.323 236.008 225.595 237.048 223.387 237.048C222.139 237.048 221.179 236.824 220.507 236.376C219.835 235.896 219.355 235.304 219.067 234.6C218.811 233.864 218.683 233.128 218.683 232.392C218.683 231.624 218.731 230.968 218.827 230.424C217.803 230.456 216.603 230.488 215.227 230.52C213.851 230.52 212.699 230.488 211.771 230.424C211.867 230.968 211.915 231.624 211.915 232.392C211.915 233.128 211.771 233.864 211.483 234.6C211.227 235.304 210.763 235.896 210.091 236.376C209.419 236.856 208.459 237.096 207.211 237.096ZM211.435 221.88C213.963 221.784 216.491 221.784 219.019 221.88C219.179 220.76 219.163 219.688 218.971 218.664C218.779 217.64 218.379 216.808 217.771 216.168C217.163 215.528 216.299 215.208 215.179 215.208C214.059 215.208 213.195 215.528 212.587 216.168C212.011 216.808 211.627 217.64 211.435 218.664C211.275 219.656 211.275 220.728 211.435 221.88ZM240.065 237.048C238.625 237.048 237.425 236.584 236.465 235.656C235.537 234.696 234.801 233.432 234.257 231.864C233.713 230.264 233.329 228.52 233.105 226.632C232.913 224.744 232.817 222.872 232.817 221.016C232.817 218.84 233.105 216.712 233.681 214.632C234.289 212.552 235.201 210.68 236.417 209.016C237.665 207.32 239.233 205.976 241.121 204.984C243.009 203.992 245.249 203.496 247.841 203.496C250.465 203.496 252.833 204.04 254.945 205.128C257.089 206.216 258.801 207.768 260.081 209.784C261.361 211.8 262.001 214.2 262.001 216.984C262.001 219.416 261.633 221.528 260.897 223.32C260.193 225.08 259.249 226.536 258.065 227.688C258.545 228.424 258.929 229.208 259.217 230.04C259.505 230.872 259.649 231.672 259.649 232.44C259.649 233.336 259.409 234.136 258.929 234.84C258.449 235.512 257.825 236.04 257.057 236.424C256.321 236.808 255.537 237 254.705 237C254.001 237 253.345 236.888 252.737 236.664C252.129 236.44 251.457 236.056 250.721 235.512C250.049 235 249.457 234.328 248.945 233.496C248.433 232.632 248.017 231.784 247.697 230.952C246.577 230.824 245.521 230.552 244.529 230.136C244.689 230.904 244.769 231.688 244.769 232.488C244.801 233.288 244.673 234.04 244.385 234.744C244.129 235.416 243.649 235.976 242.945 236.424C242.273 236.84 241.313 237.048 240.065 237.048ZM248.321 223.32C249.473 223.32 250.465 222.92 251.297 222.12C252.161 221.288 252.593 220.328 252.593 219.24C252.593 218.12 252.161 217.16 251.297 216.36C250.465 215.528 249.473 215.112 248.321 215.112C247.169 215.112 246.161 215.528 245.297 216.36C244.465 217.16 244.049 218.12 244.049 219.24C244.049 220.328 244.465 221.288 245.297 222.12C246.161 222.92 247.169 223.32 248.321 223.32Z" fill="#FFAA00" fill-opacity="0.2"/>
<circle cx="236" cy="83" r="4" fill="#FF0000" fill-opacity="0.2"/>
<circle cx="203" cy="63" r="4" fill="#2A951F" fill-opacity="0.3"/>
<circle cx="259" cy="59" r="4" fill="#FFAA00" fill-opacity="0.3"/>
<circle cx="271" cy="93" r="4" fill="#2A951F" fill-opacity="0.3"/>
<circle cx="17" cy="47" r="4" fill="#2A951F" fill-opacity="0.3"/>
<circle cx="67" cy="88" r="4" fill="#FF0000" fill-opacity="0.2"/>
<circle cx="42" cy="29" r="4" fill="#FF0000" fill-opacity="0.2"/>
<circle cx="89" cy="52" r="4" fill="#2A951F" fill-opacity="0.3"/>
<circle cx="215" cy="140" r="4" fill="#FF0000" fill-opacity="0.2"/>
<circle cx="197" cy="187" r="4" fill="#2A951F" fill-opacity="0.3"/>
<circle cx="96" cy="185" r="4" fill="#FF0000" fill-opacity="0.2"/>
<circle cx="6" cy="130" r="4" fill="#2A951F" fill-opacity="0.3"/>
<circle cx="232" cy="156" r="4" fill="#FFAA00" fill-opacity="0.3"/>
<circle cx="247" cy="132" r="4" fill="#2A951F" fill-opacity="0.3"/>
<circle cx="273" cy="214" r="4" fill="#FF0000" fill-opacity="0.2"/>
<circle cx="135" cy="213" r="4" fill="#FF0000" fill-opacity="0.2"/>
<circle cx="63" cy="145" r="4" fill="#FFAA00" fill-opacity="0.3"/>
<circle cx="52" cy="184" r="4" fill="#2A951F" fill-opacity="0.3"/>
<circle cx="37" cy="164" r="4" fill="#FF0000" fill-opacity="0.2"/>
<circle cx="7" cy="193" r="4" fill="#FFAA00" fill-opacity="0.3"/>
<circle cx="232" cy="21" r="4" fill="white" fill-opacity="0.5"/>
<circle cx="267" cy="119" r="4" fill="white" fill-opacity="0.5"/>
<circle cx="123" cy="33" r="4" fill="white" fill-opacity="0.5"/>
<circle cx="13" cy="155" r="4" fill="white" fill-opacity="0.5"/>
<circle cx="73" cy="168" r="4" fill="white" fill-opacity="0.5"/>
</svg>
